<?xml version="1.0" encoding="utf-8"?>
<!-- Generator: Adobe Illustrator 14.0.0, SVG Export Plug-In . SVG Version: 6.00 Build 43363)  -->
<!DOCTYPE svg PUBLIC "-//W3C//DTD SVG 1.1//EN" "http://www.w3.org/Graphics/SVG/1.1/DTD/svg11.dtd">
<svg version="1.1" id="Layer_1" xmlns="http://www.w3.org/2000/svg" xmlns:xlink="http://www.w3.org/1999/xlink" x="0px" y="0px"
	 viewBox="0 0 176.586 176.586" enable-background="new 0 0 176.586 176.586"
	 xml:space="preserve">
<rect class="fillcolor" fill="#EB2227" width="176.586" height="176.586"/>
<polygon fill="#231F20" points="52.914,68.503 25.423,57.469 10.042,61.01 25.423,75.901 "/>
<polygon fill="#231F20" points="121.772,68.503 149.264,57.469 164.645,61.01 149.264,75.901 "/>
<polygon fill="#FFFFFF" points="52.914,68.503 34.469,77.44 25.423,75.901 "/>
<polygon fill="#FFFFFF" points="121.772,68.503 140.218,77.44 149.264,75.901 "/>
<polyline fill="#231F20" points="52.914,68.503 58.933,44.056 54.609,26.133 68.406,18.586 82.623,50.477 87.656,53.447 
	93.047,50.477 106.322,18.586 120.371,26.133 115.482,44.056 121.772,68.503 114.313,83.598 101.775,149.592 87.652,158.17 
	73.823,149.592 62.139,83.598 "/>
<polygon fill="#FFFFFF" points="59.615,79.479 72.583,77.441 70.992,94.02 63.984,94.02 62.14,83.598 "/>
<polygon fill="#231F20" points="71.591,89.272 69.642,90.024 67.157,91.734 64.591,90.532 63.455,91.029 63.984,94.02 71.135,94.02 
	"/>
<polygon fill="#FFFFFF" points="116.385,79.407 103.87,77.44 105.461,94.02 112.333,94.02 114.314,83.599 "/>
<polygon fill="#FFFFFF" points="74.73,148.507 101.02,148.507 87.652,156.064 "/>
<polygon class="fillcolor" fill="#EB2227" points="77.308,145.59 86.787,139.493 81.332,126.235 74.025,128.356 "/>
<polygon class="fillcolor" fill="#EB2227" points="85.642,145.018 94.021,131.008 102.142,129.576 95.451,145.018 "/>
<polygon class="fillcolor" fill="#EB2227" points="87.875,131.008 103.3,121.727 103.573,108.471 82.124,114.569 "/>
<polygon class="fillcolor" fill="#EB2227" points="79.261,122.788 72.776,124.22 69.627,102.903 76.892,107.144 "/>
<polygon class="fillcolor" fill="#EB2227" points="85.642,108.47 106.138,101.841 104.626,95.479 87.344,98.129 "/>
<polygon class="fillcolor" fill="#EB2227" points="77.952,102.903 87.875,90.44 76.892,85.73 72.879,99.985 "/>
<polygon class="fillcolor" fill="#EB2227" points="89.884,94.02 101.02,92.827 97.321,65.517 89.884,66.685 "/>
<polygon class="fillcolor" fill="#EB2227" points="78.023,81.161 86.443,82.222 84.316,60.745 72.88,60.745 "/>
<polygon class="fillcolor" fill="#EB2227" points="71.059,74.797 60.559,74.797 59.218,64.191 68.791,62.335 "/>
<polygon class="fillcolor" fill="#EB2227" points="102.438,72.972 97.321,50.139 114.132,50.139 114.132,74.47 "/>
<polygon class="fillcolor" fill="#EB2227" points="60.891,58.358 82.194,53.851 72.879,35.025 60.891,39.002 "/>
<polygon class="fillcolor" fill="#EB2227" points="98.634,45.26 107.661,23.889 115.231,27.973 111.52,46.586 "/>
<polygon fill="#231F20" points="104.862,89.272 106.812,90.024 109.296,91.734 111.862,90.532 112.909,90.991 112.333,94.02 
	105.318,94.02 "/>
<polygon class="fillcolor" fill="#EB2227" points="45.006,68.36 26.249,72.829 14.914,62.304 25.423,60.029 "/>
<polygon class="fillcolor" fill="#EB2227" points="129.595,68.36 148.351,72.829 159.687,62.304 149.178,60.029 "/>
</svg>
