<?xml version="1.0" encoding="utf-8"?>
<!-- Generator: Adobe Illustrator 14.0.0, SVG Export Plug-In . SVG Version: 6.00 Build 43363)  -->
<!DOCTYPE svg PUBLIC "-//W3C//DTD SVG 1.1//EN" "http://www.w3.org/Graphics/SVG/1.1/DTD/svg11.dtd">
<svg version="1.1" id="Layer_1" xmlns="http://www.w3.org/2000/svg" xmlns:xlink="http://www.w3.org/1999/xlink" x="0px" y="0px"
	 width="353.509px" height="106.14px" viewBox="0 0 353.509 106.14" enable-background="new 0 0 353.509 106.14"
	 xml:space="preserve">
<path fill="#EB2227" d="M223.009,66.953l25.001,6.71c0.261-0.255,0.509-0.523,0.739-0.811c0.854-1.066,1.281-2.425,1.281-4.071
	c0-1.77-0.564-3.203-1.692-4.3c-1.13-1.099-2.608-2.015-4.437-2.745c-1.83-0.732-3.906-1.373-6.224-1.922
	c-2.317-0.55-4.666-1.158-7.045-1.83c-2.44-0.609-4.819-1.357-7.138-2.242c-2.318-0.883-4.391-2.027-6.221-3.432
	c-1.83-1.402-3.311-3.156-4.438-5.262c-0.423-0.785-0.738-1.653-1.002-2.562l-18.325,4.918l4.003,10.705l17.647,4.735h7.695
	C222.854,65.591,222.917,66.285,223.009,66.953"/>
<polygon fill="#EB2227" points="105.92,35.528 105.92,72.912 153.505,60.14 157.571,49.39 "/>
<path fill="#EB2227" d="M77.998,28.035c1.433,1.497,2.702,3.169,3.765,5.061c1.648,2.929,2.684,6.283,3.112,10.065H70.967
	c-0.245-1.647-0.793-3.157-1.647-4.53c-0.855-1.372-1.922-2.576-3.203-3.613c-1.28-1.036-2.731-1.845-4.346-2.426
	c-1.617-0.578-3.309-0.868-5.078-0.868c-3.234,0-5.979,0.627-8.235,1.876c-2.258,1.251-4.087,2.928-5.491,5.031
	c-1.403,2.105-2.424,4.5-3.064,7.184c-0.641,2.685-0.961,5.46-0.961,8.327c0,2.744,0.32,5.413,0.961,8.006
	c0.64,2.593,1.661,4.927,3.064,7c1.404,2.073,3.233,3.736,5.491,4.985c2.256,1.251,5.001,1.876,8.235,1.876
	c4.392,0,7.823-1.341,10.294-4.025c2.47-2.684,3.98-6.223,4.528-10.614h13.909c-0.366,4.087-1.313,7.778-2.836,11.072
	c-1.508,3.254-3.496,6.028-5.954,8.33l14.92-4.004V31.672L77.998,28.035z"/>
<polygon fill="#EB2227" points="169.902,52.7 168.709,56.06 175.566,54.22 "/>
<polygon fill="#EB2227" points="181.949,55.933 180.871,52.795 175.566,54.22 "/>
<path fill="#EB2227" d="M259.867,31.595c1.244,2.544,1.875,5.572,1.875,9.095h-13.907c-0.123-1.952-0.535-3.568-1.236-4.85
	c-0.112-0.206-0.241-0.395-0.366-0.586l-20.709,5.558c0.079,0.18,0.161,0.358,0.26,0.519c0.487,0.793,1.448,1.525,2.882,2.195
	c1.432,0.672,3.416,1.344,5.947,2.014c2.531,0.672,5.841,1.525,9.928,2.562c1.221,0.245,2.913,0.688,5.079,1.327
	c2.164,0.64,4.313,1.663,6.45,3.065c2.135,1.403,3.98,3.279,5.536,5.628c1.556,2.348,2.333,5.352,2.333,9.012
	c0,2.989-0.58,5.765-1.738,8.327c-0.275,0.607-0.588,1.192-0.926,1.762l10.258,2.753V28.464L259.867,31.595z"/>
<path fill="#EB2227" d="M43.197,85.388c-3.996-1.739-7.366-4.133-10.111-7.184c-2.745-3.049-4.85-6.634-6.314-10.751
	c-1.464-4.118-2.196-8.555-2.196-13.313c0-4.879,0.732-9.408,2.196-13.587c1.464-4.179,3.569-7.823,6.314-10.936
	c2.745-3.11,6.115-5.549,10.111-7.319c1.939-0.858,3.999-1.505,6.175-1.946L10.066,9.803v88.834l41.091-11.028
	C48.313,87.198,45.658,86.458,43.197,85.388"/>
<polygon fill="#EB2227" points="285.897,24.609 285.897,46.271 312.341,46.271 312.341,21.201 326.708,21.201 326.708,86.532 
	312.341,86.532 312.341,58.349 285.897,58.349 285.897,83.831 341.066,98.636 341.066,9.803 "/>
<path fill="#EB2227" d="M56.693,87.996c4.025,0,7.716-0.61,11.071-1.83s6.283-2.988,8.784-5.308c0.03-0.026,0.056-0.059,0.086-0.087
	l-25.477,6.837C52.929,87.864,54.773,87.996,56.693,87.996"/>
<path fill="#EB2227" d="M75.496,25.73c-2.531-1.981-5.398-3.491-8.601-4.529c-3.203-1.037-6.603-1.556-10.202-1.556
	c-2.574,0-5.013,0.238-7.321,0.707l28.626,7.683C77.213,27.214,76.392,26.431,75.496,25.73"/>
<polygon fill="#EB2227" points="105.92,21.201 91.555,21.201 91.555,31.673 105.92,35.528 "/>
<polygon fill="#EB2227" points="91.555,86.532 137.763,86.532 137.763,74.454 105.92,74.454 105.92,72.912 91.555,76.766 "/>
<polygon fill="#ED1C24" points="175.367,37.304 175.55,37.304 180.871,52.796 193.509,49.404 182.962,21.201 168.23,21.201 
	157.57,49.39 169.902,52.7 "/>
<polygon fill="#EB2227" points="183.785,61.278 166.857,61.278 168.709,56.06 153.505,60.14 143.525,86.532 157.982,86.532 
	163.106,71.984 187.537,71.984 192.478,86.532 207.392,86.532 197.513,60.11 181.949,55.932 "/>
<path fill="#EB2227" d="M245.547,75.369c-1.281,0.609-2.653,1.021-4.117,1.234c-1.464,0.215-2.837,0.321-4.118,0.321
	c-1.891,0-3.721-0.229-5.49-0.688c-1.77-0.456-3.309-1.157-4.621-2.104c-1.312-0.945-2.363-2.181-3.155-3.706
	c-0.524-1.006-0.858-2.175-1.036-3.475l-7.85-2.106h-6.213c-0.061,4.025,0.67,7.502,2.197,10.431
	c1.523,2.928,3.582,5.339,6.176,7.229c2.592,1.891,5.582,3.28,8.967,4.163c3.386,0.884,6.877,1.327,10.477,1.327
	c4.452,0,8.372-0.52,11.758-1.556c3.385-1.037,6.223-2.484,8.51-4.347c1.744-1.418,3.156-3.044,4.244-4.871l-13.265-3.56
	C247.302,74.352,246.483,74.923,245.547,75.369"/>
<path fill="#EB2227" d="M225.051,38.219c0-1.401,0.306-2.562,0.915-3.477s1.387-1.678,2.333-2.288
	c0.944-0.609,1.998-1.036,3.157-1.28c1.158-0.244,2.318-0.367,3.477-0.367c1.768,0,3.4,0.154,4.895,0.458
	c1.494,0.307,2.822,0.824,3.981,1.557c0.972,0.613,1.773,1.433,2.425,2.433l13.633-3.659c-0.09-0.187-0.176-0.377-0.274-0.559
	c-1.435-2.653-3.371-4.834-5.81-6.542c-2.44-1.707-5.231-2.942-8.373-3.706c-3.142-0.762-6.42-1.145-9.836-1.145
	c-2.928,0-5.855,0.398-8.785,1.19c-2.926,0.794-5.551,2.013-7.867,3.66c-2.319,1.646-4.195,3.706-5.628,6.176
	c-1.433,2.471-2.15,5.384-2.15,8.738c0,1.874,0.248,3.553,0.691,5.078l13.69-3.675C225.213,40.101,225.051,39.242,225.051,38.219"/>
<polygon fill="#EB2227" points="271.532,21.201 271.532,28.464 285.897,24.609 285.897,21.201 "/>
<polygon fill="#EB2227" points="271.532,86.532 285.897,86.532 285.897,83.831 271.532,79.975 "/>
<rect id="_x3C_Slice_x3E_" x="-7.491" y="-10.461" fill="none" width="371" height="126"/>
</svg>
