<?xml version="1.0" encoding="utf-8"?>
<!-- Generator: Adobe Illustrator 14.0.0, SVG Export Plug-In . SVG Version: 6.00 Build 43363)  -->
<!DOCTYPE svg PUBLIC "-//W3C//DTD SVG 1.1//EN" "http://www.w3.org/Graphics/SVG/1.1/DTD/svg11.dtd">
<svg version="1.1" id="Layer_1" xmlns="http://www.w3.org/2000/svg" xmlns:xlink="http://www.w3.org/1999/xlink" x="0px" y="0px"
	 viewBox="0 0 176.586 176.586" enable-background="new 0 0 176.586 176.586"
	 xml:space="preserve">
<rect class="fillcolor" fill="#E90F8B" width="176.586" height="176.586"/>
<path d="M38.477,63.229c-0.015-8.742-0.196-17.488,0.001-26.226c0.282-12.525,11.13-23.372,23.64-23.645
	c8.738-0.19,17.483-0.009,26.225,0.006c0.035,8.291,0.069,16.581,0.104,24.872c-0.16,1.403-0.321,2.806-0.481,4.208
	c-1.406,9.952-9.508,18.536-19.578,20.268c-3.72,0.639-7.58,0.457-11.376,0.649c-4.064,0.002-8.13,0.004-12.195,0.005
	C42.702,63.321,40.589,63.275,38.477,63.229 M75.853,19.572c-3.419,0.024-6.146,2.731-6.196,6.149
	c-0.05,3.506,2.767,6.336,6.282,6.312c3.528-0.023,6.267-2.86,6.178-6.398C82.029,22.206,79.284,19.548,75.853,19.572"/>
<path d="M121.82,163.289c-13.318-0.162-26.639-0.324-39.958-0.485c-24.443-2.832-44.041-25.185-43.385-49.483
	c2.164,0.127,4.329,0.254,6.494,0.383c24.207,4.168,38.013,18.937,43.513,42.438v-36.804c0.256,1.037,0.562,2.064,0.761,3.111
	c4.078,21.402,21.059,37.502,42.599,40.371C128.503,162.977,125.161,163.133,121.82,163.289"/>
<path d="M88.4,63.296c26.471,0.039,48.294,20.573,49.891,46.956c0.061,0.992-0.001,1.99-0.006,2.986
	c-5.447-0.006-10.895-0.012-16.342-0.018c-0.167-1.013-0.333-2.025-0.5-3.039c-0.656-14.423-13.611-28.288-27.901-29.856
	c-1.722-0.189-3.446-0.348-5.169-0.521C88.382,74.302,88.391,68.799,88.4,63.296"/>
<path fill="#AEB0B2" d="M138.332,146.784h-15.619c-0.131,0.172-0.262,0.345-0.394,0.517c5.068,5.08,10.137,10.16,15.206,15.241
	c-0.072,0.202-0.146,0.404-0.218,0.606c-1.821-0.109-3.643-0.219-5.464-0.328c-21.54-2.869-38.521-18.969-42.599-40.37
	c-0.199-1.048-0.504-2.075-0.76-3.112c0.008-1.876,0.016-3.752,0.023-5.629c0.908,0.842,1.836,1.662,2.721,2.527
	c4.545,4.451,9.077,8.914,13.615,13.375c0.159,0.217,0.318,0.434,0.479,0.652c0.175,0.168,0.349,0.338,0.523,0.508
	c5.008,5.008,10.015,10.016,15.021,15.022c0.335-0.513,0.919-1.009,0.958-1.544c0.127-1.727-0.01-3.469,0.069-5.201
	c0.127-2.777,0.345-5.55,0.524-8.324c1.135,1.1,2.272,2.198,3.405,3.301c4.17,4.06,8.338,8.119,12.507,12.178
	C138.332,146.396,138.332,146.592,138.332,146.784"/>
<path fill="#FFFFFF" d="M88.446,38.236c-0.035-8.291-0.069-16.581-0.104-24.872c13.64-0.262,25.341,11.424,25.033,25
	c-0.138,6.079-4.437,11.2-10.159,12.219c-1.605,0.286-2.307-0.118-2.335-1.84c-0.04-2.465-0.27-4.927-0.419-7.39
	c0.054-0.882,0.106-1.764,0.188-3.117H88.446z"/>
<path fill="#ADB0B2" d="M38.501,100.293c1.226,1.66,2.323,3.436,3.701,4.959c4.782,5.283,15.506,5.252,19.69-2.939
	c0.368-0.721,0.802-1.41,1.476-2.587c2.688,4.736,5.49,8.675,11.246,9.093c5.63,0.41,9.561-2.05,12.583-6.604
	c0.234,0.083,0.47,0.165,0.705,0.247v10.748c-13.18,0.019-26.359,0.024-39.538,0.071c-1.131,0.004-2.263,0.274-3.394,0.42
	c-2.164-0.127-4.328-0.254-6.494-0.381C38.485,108.979,38.493,104.636,38.501,100.293"/>
<path fill="#231F20" d="M88.446,38.236h12.204c-0.082,1.353-0.135,2.235-0.188,3.117c-1.707,5.869-5.897,9.149-12.063,9.44
	c-0.145-2.783-0.289-5.567-0.435-8.349C88.125,41.042,88.286,39.64,88.446,38.236"/>
<path fill="#FCFCFC" d="M75.852,19.572c3.433-0.024,6.179,2.634,6.265,6.063c0.089,3.538-2.649,6.375-6.177,6.399
	c-3.517,0.023-6.333-2.807-6.282-6.312C69.706,22.303,72.433,19.596,75.852,19.572 M72.881,25.476
	c-0.005,1.956,0.779,3.165,2.694,3.309c1.953,0.147,3.208-0.743,3.313-2.783c0.103-1.977-0.885-3.129-2.914-3.193
	C74.084,22.748,73.091,23.755,72.881,25.476"/>
<path d="M88.363,113.291c0.006-4.657,0.117-9.318-0.026-13.971c-0.073-2.394,0.929-2.818,2.996-2.478
	c7.849,1.294,13.74,8.39,13.551,16.415c-5.482-0.006-10.966-0.012-16.448-0.016L88.363,113.291z"/>
<path fill="#AEB0B2" d="M105.859,114.285c5.021,4.982,10.043,9.965,15.064,14.947c-2.119,0.172-4.235,0.438-6.357,0.495
	c-3.058,0.083-6.118,0.017-9.178,0.013c0.001-4.19-0.024-8.382,0.026-12.572C105.426,116.205,105.704,115.246,105.859,114.285"/>
<path fill="#AEB0B2" d="M137.869,129.756c-4.463-0.004-8.926-0.06-13.388,0.013c-1.931,0.032-2.65-0.749-2.619-2.649
	c0.072-4.462,0.023-8.925,0.023-13.388C127.214,119.072,132.541,124.414,137.869,129.756"/>
<path fill="#231F20" d="M72.881,25.476c0.21-1.721,1.203-2.728,3.094-2.667c2.029,0.064,3.017,1.216,2.914,3.193
	c-0.105,2.04-1.36,2.93-3.313,2.783C73.66,28.641,72.876,27.432,72.881,25.476"/>
<g>
	<defs>
		<rect id="SVGID_1_" x="88.435" y="113.241" width="49.981" height="49.96"/>
	</defs>
	<clipPath id="SVGID_2_">
		<use xlink:href="#SVGID_1_"  overflow="visible"/>
	</clipPath>
	<path clip-path="url(#SVGID_2_)" fill="#FFFFFF" d="M180.759,117.023c0,25.474-20.651,46.125-46.125,46.125
		s-46.125-20.651-46.125-46.125c0-25.475,20.651-46.125,46.125-46.125S180.759,91.549,180.759,117.023"/>
</g>
<polygon fill="#231F20" points="138.416,163.201 88.435,113.241 138.416,113.241 "/>
<polygon class="fillcolor" fill="#E90F8B" points="121.943,113.221 121.943,129.77 138.29,129.724 "/>
<polygon class="fillcolor" fill="#E90F8B" points="121.943,130.154 121.943,146.703 138.29,146.656 "/>
<polygon class="fillcolor" fill="#E90F8B" points="104.979,113.221 104.979,129.77 121.327,129.724 "/>
<g>
	<defs>
		<rect id="SVGID_3_" x="88.399" y="63.296" width="49.944" height="49.942"/>
	</defs>
	<clipPath id="SVGID_4_">
		<use xlink:href="#SVGID_3_"  overflow="visible"/>
	</clipPath>
	<path clip-path="url(#SVGID_4_)" fill="#FFFFFF" d="M138.22,113.211c0,27.465-22.265,49.731-49.73,49.731
		s-49.73-22.267-49.73-49.731s22.265-49.73,49.73-49.73S138.22,85.746,138.22,113.211"/>
	<path clip-path="url(#SVGID_4_)" class="fillcolor" fill="#E90F8B" d="M121.735,113.408c0,18.324-14.855,33.18-33.18,33.18
		c-18.325,0-33.182-14.855-33.182-33.18c0-18.326,14.856-33.181,33.182-33.181C106.88,80.228,121.735,95.082,121.735,113.408"/>
	<path clip-path="url(#SVGID_4_)" fill="#FFFFFF" d="M104.962,113.211c0,9.099-7.375,16.474-16.473,16.474
		c-9.097,0-16.472-7.375-16.472-16.474c0-9.098,7.375-16.473,16.472-16.473C97.587,96.738,104.962,104.113,104.962,113.211"/>
</g>
<rect x="38.459" y="63.296" fill="#FFFFFF" width="49.941" height="17.011"/>
<rect x="38.504" y="96.773" fill="#FFFFFF" width="49.858" height="16.518"/>
<path fill="#231F20" d="M57.011,63.361c-0.386,4.003-2.395,5.972-6.094,5.973c-3.702,0-5.703-1.956-6.102-5.968
	C48.881,63.365,52.946,63.363,57.011,63.361"/>
<path fill="#231F20" d="M44.926,96.772c3.991,0.001,7.984,0.001,11.977,0.002c-0.138,3.671-2.353,5.931-5.865,5.983
	C47.387,102.813,45.073,100.547,44.926,96.772"/>
<path fill="#231F20" d="M69.913,96.771c3.992,0.002,7.984,0.002,11.976,0.004c-0.159,3.752-2.503,6.041-6.124,5.981
	C72.254,102.699,70.05,100.445,69.913,96.771"/>
<path fill="#231F20" d="M76.001,63.3c1.33-0.001,2.659,0.013,3.989-0.005c1.782-0.024,2.173,0.872,1.636,2.409
	c-0.772,2.211-2.992,3.626-5.7,3.631c-2.732,0.004-4.94-1.371-5.731-3.582c-0.529-1.482-0.268-2.466,1.566-2.454
	C73.174,63.309,74.588,63.301,76.001,63.3"/>
<g>
	<defs>
		<rect id="SVGID_5_" x="38.458" y="80.307" width="50.031" height="16.431"/>
	</defs>
	<clipPath id="SVGID_6_">
		<use xlink:href="#SVGID_5_"  overflow="visible"/>
	</clipPath>
	<path clip-path="url(#SVGID_6_)" fill="#231F20" d="M38.458,80.307c1.076-0.044,2.16-0.023,3.229-0.145
		c1.916-0.219,3.008,0.429,3.68,2.385c0.836,2.437,2.952,3.589,5.456,3.619c2.612,0.031,4.813-1.136,5.662-3.679
		c0.678-2.026,1.864-2.422,3.723-2.337c2.401,0.109,4.826-0.124,7.211,0.108c0.908,0.088,2.161,0.865,2.515,1.658
		c1.175,2.647,3.046,4.189,5.881,4.251c2.882,0.062,4.913-1.526,5.879-4.172c0.537-1.473,1.387-1.836,2.786-1.844
		c1.311-0.008,2.621-0.251,3.931-0.39c-0.308,1.689-0.617,3.379-0.926,5.067c-0.207,0.361-0.41,0.724-0.622,1.082
		c-2.771,4.701-6.878,6.851-12.316,6.352c-4.969-0.457-8.233-3.232-10.225-7.679c-0.257-0.574-0.498-1.155-0.908-2.107
		c-0.479,1.107-0.786,1.844-1.117,2.568c-3.851,8.427-14.947,10.017-20.895,2.894c-1.248-1.494-1.93-3.461-2.873-5.21
		C38.504,81.921,38.481,81.114,38.458,80.307"/>
</g>
</svg>
