<?xml version="1.0" encoding="utf-8"?>
<!-- Generator: Adobe Illustrator 14.0.0, SVG Export Plug-In . SVG Version: 6.00 Build 43363)  -->
<!DOCTYPE svg PUBLIC "-//W3C//DTD SVG 1.1//EN" "http://www.w3.org/Graphics/SVG/1.1/DTD/svg11.dtd">
<svg version="1.1" id="Layer_1" xmlns="http://www.w3.org/2000/svg" xmlns:xlink="http://www.w3.org/1999/xlink" x="0px" y="0px"
	 viewBox="0 0 233.789 233.789" enable-background="new 0 0 233.789 233.789"
	 xml:space="preserve">
<rect class="fillcolor" fill="#88288B" width="233.789" height="233.789"/>
<path fill="#E6E7E8" d="M105.809,46.491c-4.711-0.017-9.424,0.048-14.131-0.088c-2.195-0.063-2.973,0.659-2.943,2.91
	c0.13,9.729,0.135,19.459,0.136,29.188c0.002,15.514,0,31.029-0.101,46.542c-0.013,1.965,0.611,2.549,2.495,2.545
	c16.905-0.041,33.81-0.049,50.715,0.029c2.176,0.01,2.883-0.617,2.854-2.848c-0.119-9.424-0.061-18.849-0.061-28.274
	c0-15.836-0.019-31.672,0.037-47.507c0.008-1.79-0.316-2.666-2.383-2.597c-4.785,0.162-9.576,0.102-14.365,0.131
	C120.645,46.512,113.227,46.502,105.809,46.491 M191.741,80.14c0.208-0.09,0.416-0.181,0.625-0.271c0-3.205-0.005-6.411,0-9.617
	c0.016-14.364,0.022-28.728,0.071-43.092c0.004-1.407-0.469-1.852-1.899-1.832c-6.403,0.087-12.812-0.032-19.215,0.093
	c-12.072,0.235-20.966,9.301-20.972,21.324c-0.016,36.326-0.006,72.651-0.006,108.977v2.39h55.938
	c0.048-0.783,0.115-1.392,0.117-1.998c0.007-16.913-0.026-33.826,0.051-50.739c0.009-2.096-0.59-3.592-2.08-5.073
	c-14.964-14.871-29.775-29.898-44.857-44.648c-2.838-2.776-3.841-5.506-3.598-9.306c0.475-7.446,5.012-13.772,12.309-14.751
	c5.955-0.799,12.104-0.163,18.279-0.163c0.034,0.686,0.1,1.366,0.1,2.046c0.006,13.057-0.008,26.115,0.035,39.172
	c0.002,0.938,0.153,2.084,0.694,2.771C188.659,77.107,190.254,78.581,191.741,80.14 M27.347,158.187h55.982
	c0-2.004,0.002-3.907-0.001-5.811c-0.023-17.205-0.072-34.41-0.065-51.615c0.006-17.663,0.029-35.325,0.115-52.988
	c0.06-12.475-7.899-21.481-20.275-22.314c-5.686-0.383-11.419-0.073-17.131-0.077c-1.507-0.002-3.014-0.001-4.51-0.001v55.124
	c1.297-1.347,2.143-2.444,3.198-3.276c1.88-1.482,2.329-3.295,2.307-5.644c-0.119-12.518-0.057-25.037-0.057-37.556v-2.886
	c5.493,0,10.658-0.116,15.816,0.03c6.079,0.172,10.467,3.163,13.334,8.51c1.773,3.307,1.576,6.882,1.498,10.412
	c-0.025,1.091-0.529,2.444-1.287,3.206c-15.844,15.933-31.767,31.787-47.618,47.714c-0.714,0.717-1.254,1.968-1.261,2.974
	c-0.08,12.902-0.048,25.805-0.045,38.707C27.348,147.784,27.347,152.871,27.347,158.187 M100.055,165.495
	c1.664,2.87,3.163,5.381,4.583,7.936c0.613,1.104,1.318,1.632,2.695,1.613c6.336-0.088,12.674-0.078,19.011-0.004
	c1.367,0.016,2.072-0.475,2.695-1.643c1.363-2.559,2.887-5.032,4.557-7.905c1.692,2.906,3.159,5.504,4.719,8.045
	c0.361,0.587,1,1.32,1.584,1.392c1.565,0.194,3.17,0.066,4.69,0.066v-41.93c-0.983,0-1.767,0.109-2.51-0.02
	c-2.229-0.387-3.513,0.488-4.468,2.549c-1.082,2.332-2.567,4.477-4.027,6.959c-1.686-2.862-3.258-5.328-4.609-7.91
	c-0.68-1.299-1.5-1.68-2.908-1.66c-6.178,0.079-12.357-0.02-18.532,0.119c-0.933,0.021-2.173,0.728-2.706,1.505
	c-1.701,2.481-3.137,5.147-4.799,7.948c-1.348-2.311-2.53-4.299-3.675-6.309c-2.001-3.512-3.425-4.066-7.328-2.873v41.618
	c0.977,0,1.685-0.096,2.359,0.017c2.293,0.383,3.705-0.474,4.706-2.617C97.16,170.099,98.603,167.982,100.055,165.495
	 M116.891,180.589v-0.017c-7.723,0-15.446-0.039-23.169,0.015c-5.493,0.036-5.522,0.129-4.344,5.539
	c3.621,16.612,19.807,26.049,36.132,21.063c10.36-3.165,18.401-13.28,19.245-24.09c0.147-1.894-0.372-2.575-2.378-2.553
	C133.883,180.646,125.387,180.589,116.891,180.589 M52.47,68.931c0.661-0.377,0.892-0.451,1.044-0.604
	c5.785-5.772,11.569-11.545,17.327-17.343c0.473-0.476,1.004-1.099,1.096-1.715c1.091-7.255-3.129-12.364-9.204-12.57
	c-2.695-0.091-5.401,0.083-8.094-0.034c-1.795-0.078-2.208,0.669-2.178,2.317c0.083,4.625,0.013,9.252,0.01,13.878
	C52.467,58.086,52.47,63.313,52.47,68.931 M180.073,68.774c0.346-0.172,0.692-0.344,1.038-0.516c0-3.359,0-6.719,0-10.079
	c-0.002-6.397-0.022-12.795,0.009-19.192c0.007-1.599-0.509-2.421-2.271-2.343c-2.771,0.122-5.574-0.126-8.313,0.2
	c-1.759,0.21-3.644,0.854-5.093,1.854c-4.732,3.264-5.233,9.666-1.266,13.662c3.096,3.12,6.231,6.202,9.295,9.354
	C175.719,64.023,177.876,66.417,180.073,68.774"/>
<path fill="#101010" d="M191.74,80.14c-1.485-1.558-3.08-3.032-4.406-4.717c-0.542-0.688-0.693-1.833-0.696-2.771
	c-0.043-13.058-0.028-26.115-0.034-39.173c0-0.68-0.064-1.36-0.1-2.045c-6.176,0-12.323-0.637-18.277,0.162
	c-7.3,0.98-11.836,7.306-12.311,14.752c-0.243,3.8,0.76,6.53,3.599,9.306c15.082,14.75,29.892,29.776,44.856,44.647
	c1.49,1.482,2.09,2.978,2.08,5.073c-0.077,16.913-0.045,33.827-0.051,50.739c0,0.608-0.069,1.215-0.117,1.998h-55.938v-2.389
	c0-36.325-0.01-72.651,0.008-108.976c0.004-12.024,8.897-21.089,20.969-21.325c6.404-0.125,12.812-0.006,19.216-0.093
	c1.431-0.019,1.903,0.425,1.899,1.833c-0.049,14.364-0.055,28.728-0.072,43.092c-0.002,3.206,0,6.411,0,9.617
	C192.158,79.96,191.949,80.05,191.74,80.14 M200.4,127.176c0.156-0.728,0.438-1.454,0.447-2.185
	c0.055-4.621,0.064-9.245,0.059-13.868c-0.004-3.41-0.025-3.408-3.521-3.409c-12.79-0.006-25.58-0.014-38.37-0.012
	c-0.698,0-1.397,0.089-2.097,0.136c-0.02,0.176-0.04,0.352-0.059,0.528c0.611,0.251,1.224,0.502,1.836,0.753
	c1.694,0.727,3.393,1.447,5.084,2.18C175.988,116.591,188.193,121.884,200.4,127.176 M199.966,152.286
	c0.312-0.627,0.881-1.25,0.892-1.881c0.084-4.558,0.053-9.115,0.063-13.672c0.006-3.668-0.2-3.91-3.895-3.914
	c-12.666-0.015-25.332-0.009-37.998,0.004c-0.703,0.002-1.406,0.142-2.109,0.217c-0.014,0.16-0.029,0.32-0.043,0.479
	c0.47,0.203,0.939,0.406,1.41,0.609C172.178,140.181,186.072,146.233,199.966,152.286 M156.713,87.246
	c3.928-2.057,8.023-1.783,12.096-1.742c4.027,0.041,8.055,0.009,12.223,0.009c-4.844-4.936-9.41-9.59-14.154-14.425
	C163.453,76.532,160.083,81.889,156.713,87.246 M156.094,102.215c5.369,0,10.6,0.02,15.829-0.006
	c6.519-0.032,9.97-4.247,8.836-10.93h-6.996c0.716,3.077,0.49,5.885-2.467,7.542c-1.925,1.079-4.037,1.037-5.914-0.278
	c-2.446-1.712-2.933-4.147-2.17-6.923C158.477,91.739,155.677,95.817,156.094,102.215 M197.348,102.105
	c-3.41-3.45-6.869-6.948-10.104-10.219c-0.727,3.224-1.506,6.679-2.303,10.219H197.348z"/>
<path fill="#101010" d="M27.346,158.187c0-5.315,0.001-10.403,0-15.49c-0.002-12.902-0.034-25.805,0.046-38.707
	c0.006-1.006,0.547-2.257,1.261-2.974c15.85-15.927,31.774-31.781,47.618-47.714c0.758-0.762,1.262-2.115,1.286-3.206
	c0.079-3.53,0.276-7.106-1.497-10.412c-2.868-5.348-7.255-8.338-13.335-8.51c-5.157-0.146-10.322-0.03-15.815-0.03v2.886
	c0,12.519-0.062,25.038,0.057,37.556c0.022,2.349-0.427,4.162-2.307,5.644c-1.055,0.832-1.901,1.929-3.198,3.276V25.381
	c1.496,0,3.002-0.001,4.509,0.001c5.712,0.004,11.446-0.306,17.132,0.077c12.375,0.833,20.335,9.839,20.274,22.314
	c-0.086,17.663-0.108,35.325-0.114,52.988c-0.007,17.205,0.042,34.41,0.065,51.615c0.003,1.902,0.001,3.807,0.001,5.811H27.346z
	 M33.075,117.562v9.789c14.237-6.201,28.13-12.253,42.023-18.304c0.559-0.274,1.12-0.547,1.892-0.925
	c-0.479-0.228-0.609-0.344-0.738-0.344c-13.788-0.021-27.575-0.027-41.363-0.052c-1.382-0.003-1.948,0.653-1.923,1.983
	C33.016,112.325,33.04,114.943,33.075,117.562 M33.018,143.019v9.43c1.026-0.402,1.735-0.654,2.423-0.954
	c12.931-5.627,25.859-11.259,38.788-16.89c0.893-0.389,1.786-0.776,2.679-1.164c-0.065-0.188-0.13-0.374-0.195-0.561
	c-1.83,0-3.659,0.002-5.489,0c-12.029-0.015-24.059-0.012-36.088-0.066c-1.56-0.008-2.248,0.472-2.187,2.113
	C33.05,137.621,33.003,140.321,33.018,143.019 M66.97,71.379c-4.796,4.753-9.42,9.337-14.069,13.945
	c7.806,0.986,15.922-1.441,24.174,2.222C73.425,81.708,70.14,76.452,66.97,71.379 M52.692,91.243
	c-0.588,5.65,1.466,9.472,5.891,10.633c1.817,0.477,3.816,0.331,5.734,0.35c4.357,0.044,8.716,0.014,13.032,0.014
	c0.738-6.289-2.182-10.661-6.835-10.61c0.418,5.047-1.482,7.867-5.325,7.899c-4.012,0.033-5.918-2.795-5.488-8.286H52.692z
	 M36.16,102.084h12.508c-0.781-3.622-1.541-7.147-2.218-10.286C43.24,95.007,39.738,98.507,36.16,102.084"/>
<path fill="#FFFFFF" d="M128.063,46.523c4.789-0.029,9.581,0.032,14.365-0.13c2.066-0.07,2.39,0.806,2.384,2.596
	c-0.056,15.835-0.038,31.671-0.038,47.507c0.001,9.425-0.059,18.85,0.061,28.274c0.028,2.23-0.678,2.857-2.854,2.848
	c-16.903-0.078-33.809-0.07-50.714-0.03c-1.884,0.005-2.508-0.578-2.495-2.544c0.1-15.514,0.102-31.028,0.1-46.543
	c-0.001-9.729-0.005-19.459-0.135-29.187c-0.03-2.251,0.748-2.974,2.942-2.91c4.708,0.135,9.421,0.07,14.131,0.087
	c0.308,1.863,0.615,3.725,0.922,5.587H94.525c7.46,16.782,14.743,33.167,22.298,50.162c7.558-16.982,14.859-33.387,22.304-50.114
	h-12.383C127.184,50.258,127.623,48.391,128.063,46.523 M116.816,107.767c-4.792,0-9.585-0.045-14.375,0.045
	c-0.786,0.015-1.973,0.417-2.271,1c-1.236,2.42,0.08,4.616,2.69,4.83c4.548,0.375,6.756,2.289,8.168,6.83
	c0.187,0.604,1.069,1.356,1.676,1.4c2.535,0.186,5.087,0.121,7.633,0.162c1.209,0.02,1.896-0.317,2.256-1.706
	c1.121-4.323,4.031-6.596,8.574-6.603c2.43-0.004,2.494-1.312,2.516-3.112c0.021-1.813-0.276-2.929-2.496-2.875
	C126.4,107.853,121.607,107.773,116.816,107.767"/>
<path fill="#121112" d="M100.055,165.495c-1.452,2.486-2.895,4.604-3.964,6.896c-1.001,2.144-2.413,3-4.706,2.617
	c-0.674-0.111-1.382-0.017-2.359-0.017v-41.618c3.903-1.193,5.328-0.639,7.328,2.873c1.145,2.01,2.327,3.998,3.676,6.309
	c1.661-2.802,3.097-5.466,4.798-7.949c0.533-0.776,1.774-1.483,2.706-1.504c6.175-0.139,12.355-0.041,18.533-0.119
	c1.407-0.019,2.229,0.36,2.908,1.66c1.352,2.582,2.924,5.047,4.609,7.91c1.461-2.482,2.945-4.628,4.027-6.959
	c0.955-2.06,2.238-2.936,4.468-2.55c0.743,0.129,1.526,0.021,2.51,0.021v41.93c-1.521,0-3.125,0.128-4.69-0.066
	c-0.584-0.072-1.223-0.805-1.584-1.392c-1.56-2.541-3.026-5.14-4.719-8.045c-1.67,2.873-3.193,5.347-4.557,7.905
	c-0.623,1.168-1.327,1.66-2.695,1.644c-6.337-0.075-12.675-0.085-19.011,0.003c-1.377,0.02-2.082-0.51-2.695-1.611
	C103.218,170.876,101.719,168.365,100.055,165.495"/>
<path fill="#FFFFFF" d="M116.892,180.589c8.495,0,16.991,0.057,25.485-0.043c2.006-0.022,2.526,0.66,2.379,2.553
	c-0.846,10.811-8.887,20.925-19.246,24.089c-16.324,4.987-32.511-4.449-36.131-21.062c-1.179-5.41-1.149-5.502,4.343-5.541
	c7.723-0.051,15.447-0.013,23.17-0.013V180.589z"/>
<path fill="#111011" d="M106.73,52.079c-0.307-1.862-0.615-3.725-0.922-5.587c7.418,0.011,14.836,0.021,22.254,0.032
	c-0.439,1.867-0.879,3.735-1.318,5.602c-3.229,14.611-6.459,29.222-9.688,43.833c-1.57-5.048-2.67-10.061-3.8-15.067
	C111.09,71.285,108.907,61.683,106.73,52.079"/>
<path fill="#FFFFFF" d="M52.47,68.931c0-5.619-0.003-10.845,0.001-16.07c0.003-4.627,0.073-9.254-0.01-13.878
	c-0.029-1.649,0.383-2.396,2.178-2.318c2.694,0.117,5.399-0.057,8.094,0.034c6.075,0.206,10.296,5.315,9.204,12.57
	c-0.092,0.617-0.623,1.239-1.096,1.715c-5.758,5.798-11.542,11.571-17.326,17.343C53.362,68.48,53.131,68.554,52.47,68.931"/>
<path fill="#FFFFFF" d="M180.073,68.774c-2.197-2.357-4.354-4.751-6.601-7.06c-3.063-3.152-6.199-6.234-9.295-9.354
	c-3.968-3.996-3.467-10.398,1.266-13.662c1.449-1,3.334-1.644,5.093-1.854c2.739-0.326,5.542-0.078,8.313-0.2
	c1.762-0.078,2.277,0.744,2.271,2.343c-0.031,6.397-0.011,12.795-0.009,19.192c0,3.36,0,6.72,0,10.079
	C180.766,68.43,180.419,68.603,180.073,68.774"/>
<path fill="#FFFFFF" d="M158.285,134.128c-0.471-0.203-0.94-0.406-1.41-0.609c0.014-0.158,0.029-0.318,0.043-0.478
	c0.703-0.076,1.406-0.216,2.109-0.218c12.666-0.014,25.332-0.019,37.998-0.004c3.694,0.004,3.9,0.246,3.895,3.914
	c-0.01,4.557,0.021,9.114-0.061,13.67c-0.013,0.634-0.582,1.256-0.894,1.883c0.151-2.42,0.243-4.846,0.479-7.258
	c0.16-1.631-0.44-2.277-2.063-2.627c-12.655-2.715-25.287-5.539-37.934-8.297C159.762,133.955,159.008,134.112,158.285,134.128"/>
<path fill="#FFFFFF" d="M158.695,109.12c-0.612-0.251-1.225-0.502-1.836-0.753c0.019-0.176,0.039-0.352,0.059-0.528
	c0.699-0.048,1.398-0.136,2.097-0.136c12.79-0.003,25.58,0.006,38.37,0.011c3.496,0.002,3.518,0,3.521,3.41
	c0.006,4.623-0.004,9.246-0.059,13.868c-0.009,0.729-0.291,1.456-0.447,2.184c0.015-2.231-0.148-4.483,0.09-6.69
	c0.246-2.262-0.644-3.021-2.768-3.468c-11.953-2.518-23.871-5.201-35.813-7.779C160.878,109.015,159.77,109.151,158.695,109.12"/>
<path fill="#FFFFFF" d="M158.285,134.128c0.723-0.016,1.477-0.173,2.164-0.023c12.646,2.758,25.278,5.582,37.934,8.297
	c1.622,0.35,2.223,0.996,2.063,2.627c-0.236,2.412-0.328,4.838-0.479,7.258C186.072,146.233,172.179,140.181,158.285,134.128"/>
<path fill="#FFFFFF" d="M158.695,109.12c1.074,0.031,2.183-0.105,3.215,0.118c11.941,2.578,23.859,5.261,35.813,7.779
	c2.124,0.447,3.014,1.207,2.768,3.468c-0.238,2.207-0.075,4.459-0.09,6.69c-12.207-5.292-24.412-10.585-36.621-15.876
	C162.088,110.567,160.39,109.846,158.695,109.12"/>
<path class="fillcolor" fill="#88288B" d="M156.713,87.246c3.37-5.357,6.739-10.715,10.163-16.158c4.745,4.835,9.312,9.489,14.155,14.425
	c-4.167,0-8.195,0.031-12.223-0.009C164.736,85.463,160.641,85.188,156.713,87.246"/>
<path fill="#E5E6E7" d="M156.094,102.214c-0.416-6.397,2.383-10.476,7.117-10.594c-0.762,2.775-0.275,5.21,2.171,6.923
	c1.877,1.314,3.989,1.356,5.914,0.277c2.956-1.657,3.182-4.465,2.468-7.542h6.995c1.134,6.683-2.318,10.899-8.836,10.931
	C166.693,102.234,161.464,102.214,156.094,102.214"/>
<path class="fillcolor" fill="#88288B" d="M197.348,102.105h-12.406c0.797-3.54,1.576-6.995,2.303-10.219
	C190.479,95.158,193.938,98.656,197.348,102.105"/>
<path fill="#FFFFFF" d="M33.018,143.019c-0.015-2.698,0.032-5.398-0.069-8.092c-0.061-1.641,0.627-2.121,2.187-2.113
	c12.029,0.055,24.059,0.053,36.088,0.066c1.83,0.002,3.659,0,5.489,0c0.065,0.187,0.13,0.373,0.195,0.561
	c-0.893,0.389-1.786,0.775-2.679,1.163c-0.787-0.072-1.613-0.337-2.354-0.185c-4.608,0.947-9.199,1.979-13.791,3
	C49.727,139.279,41.373,141.151,33.018,143.019"/>
<path fill="#FFFFFF" d="M33.075,117.561c-0.035-2.618-0.059-5.235-0.109-7.853c-0.025-1.33,0.541-1.985,1.923-1.983
	c13.788,0.026,27.575,0.032,41.363,0.052c0.13,0,0.259,0.116,0.738,0.345c-0.772,0.377-1.332,0.65-1.892,0.924
	c-0.661-0.033-1.352-0.207-1.979-0.077c-4.08,0.846-8.143,1.771-12.218,2.645C51.628,113.604,42.351,115.58,33.075,117.561"/>
<path fill="#FFFFFF" d="M33.075,117.561c9.276-1.981,18.553-3.957,27.826-5.947c4.075-0.874,8.138-1.799,12.218-2.645
	c0.627-0.13,1.318,0.044,1.979,0.077c-13.893,6.052-27.786,12.104-42.023,18.305V117.561z"/>
<path fill="#FFFFFF" d="M33.018,143.019c8.355-1.867,16.709-3.739,25.066-5.6c4.592-1.021,9.183-2.053,13.791-3
	c0.741-0.152,1.567,0.112,2.354,0.185c-12.929,5.632-25.857,11.265-38.788,16.892c-0.688,0.299-1.397,0.551-2.423,0.952V143.019z"/>
<path class="fillcolor" fill="#88288B" d="M66.97,71.379c3.171,5.073,6.456,10.328,10.105,16.168c-8.252-3.664-16.368-1.237-24.174-2.222
	C57.55,80.716,62.174,76.133,66.97,71.379"/>
<path fill="#E6E7E8" d="M52.692,91.243h7.009c-0.43,5.491,1.476,8.32,5.488,8.286c3.843-0.032,5.743-2.851,5.325-7.899
	c4.653-0.051,7.573,4.321,6.835,10.61c-4.316,0-8.675,0.03-13.032-0.014c-1.918-0.019-3.917,0.127-5.734-0.35
	C54.158,100.715,52.104,96.893,52.692,91.243"/>
<path class="fillcolor" fill="#88288B" d="M36.16,102.084c3.578-3.577,7.08-7.077,10.29-10.286c0.677,3.139,1.437,6.664,2.218,10.286H36.16z"/>
<path class="fillcolor" fill="#88288B" d="M106.73,52.079c2.176,9.604,4.359,19.206,6.525,28.813c1.13,5.006,2.23,10.019,3.8,15.067
	c3.229-14.611,6.459-29.222,9.688-43.833h12.383c-7.444,16.727-14.745,33.132-22.303,50.115
	c-7.555-16.996-14.838-33.38-22.298-50.162H106.73z"/>
<path fill="#101010" d="M116.816,107.77c4.791,0.003,9.583,0.083,14.371-0.032c2.221-0.054,2.518,1.062,2.496,2.875
	c-0.021,1.799-0.086,3.108-2.516,3.111c-4.543,0.008-7.453,2.28-8.573,6.603c-0.36,1.391-1.048,1.727-2.257,1.707
	c-2.546-0.041-5.098,0.023-7.633-0.162c-0.607-0.044-1.489-0.797-1.677-1.4c-1.411-4.541-3.619-6.456-8.167-6.83
	c-2.61-0.214-3.926-2.41-2.69-4.83c0.298-0.583,1.485-0.985,2.271-1C107.231,107.722,112.024,107.767,116.816,107.77"/>
</svg>
